<svg width="46" height="46" viewBox="0 0 46 46" fill="none" xmlns="http://www.w3.org/2000/svg">
<path d="M40.352 10.2854C40.173 9.91626 39.8672 9.62382 39.4905 9.46139C39.1138 9.29896 38.6913 9.27739 38.3 9.40059C38.7966 7.50597 38.9217 5.43309 37.6976 4.20834C36.4736 2.98359 34.4015 3.10937 32.5076 3.60603C32.6028 3.26488 32.6008 2.90392 32.5018 2.56384C32.4374 2.34136 32.3251 2.13567 32.1727 1.96121C32.0204 1.78676 31.8317 1.64777 31.6199 1.554C31.1875 1.39545 30.71 1.41394 30.2912 1.60545C29.8724 1.79697 29.5461 2.14602 29.3831 2.57678L29.2883 2.79815C27.6799 2.29663 25.9473 2.36903 24.3864 3.003C23.1907 3.49778 22.1045 4.22369 21.19 5.13911C20.2754 6.05452 19.5505 7.14144 19.0569 8.33756C17.1105 12.8585 18.5135 17.7719 22.2431 19.6622C22.9431 20.9404 23.986 21.9978 25.2545 22.7154C26.5229 23.433 27.9665 23.7823 29.4227 23.7238C30.8487 23.717 32.2583 23.4196 33.5656 22.8498C34.762 22.3563 35.8492 21.6313 36.7649 20.7166C37.6806 19.802 38.4067 18.7155 38.9016 17.5196C39.5352 15.9588 39.6076 14.2266 39.1064 12.6184C39.6164 12.4536 40.0428 12.0976 40.2959 11.6251C40.4025 11.4194 40.4627 11.1929 40.4724 10.9615C40.4821 10.73 40.441 10.4992 40.352 10.2854ZM31.7917 5.33103C34.1176 4.52818 35.9374 4.48075 36.6813 5.22465C37.4252 5.96856 37.3771 7.78843 36.5757 10.1122L28.1749 13.7282L31.7917 5.33103ZM39.0122 10.9818C38.9561 11.0822 38.8674 11.1603 38.7607 11.2032L37.9061 11.5712C37.8186 11.6089 37.7395 11.6636 37.6734 11.7321C37.6072 11.8006 37.5554 11.8816 37.5208 11.9704C37.4862 12.0591 37.4696 12.1539 37.472 12.2491C37.4743 12.3443 37.4956 12.4381 37.5345 12.525C37.8375 13.2309 37.9962 13.9903 38.0013 14.7584C38.0064 15.5266 37.8577 16.288 37.564 16.9978C37.1385 18.0162 36.5163 18.9407 35.733 19.7183C34.9497 20.496 34.0207 21.1114 32.9992 21.5295C29.1704 23.1754 24.8773 21.9607 23.4341 18.8241C23.3622 18.6688 23.2374 18.5441 23.0819 18.4727C19.9424 17.0265 18.7291 12.7349 20.3772 8.90609C20.7953 7.88468 21.4108 6.95579 22.1884 6.17261C22.966 5.38943 23.8905 4.76736 24.9089 4.34203C25.6284 4.05692 26.3948 3.90871 27.1687 3.90503C27.932 3.90235 28.6872 4.06133 29.3846 4.3715C29.4714 4.41083 29.5653 4.43231 29.6606 4.43466C29.756 4.437 29.8508 4.42017 29.9395 4.38515C30.0283 4.35064 30.1094 4.2988 30.178 4.23266C30.2466 4.16652 30.3013 4.0874 30.3391 3.9999L30.7071 3.14531C30.9565 2.63643 31.2756 2.9455 31.0988 3.31422L26.1437 14.8185C26.087 14.9506 26.0711 15.0966 26.0981 15.2378C26.1252 15.379 26.194 15.5088 26.2956 15.6105C26.3972 15.7122 26.527 15.7811 26.6681 15.8082C26.8093 15.8354 26.9554 15.8196 27.0875 15.763L38.5918 10.8108C38.8692 10.7051 39.1165 10.7871 39.0122 10.9818Z" fill="#018D43"/>
<path d="M21.6134 23.8467C20.0526 23.2124 18.3199 23.14 16.7116 23.6418L16.6174 23.4212C16.4549 22.9899 16.1286 22.6403 15.7095 22.4486C15.2904 22.2569 14.8125 22.2386 14.3799 22.3977C14.1681 22.4915 13.9795 22.6304 13.8271 22.8049C13.6747 22.9794 13.5624 23.185 13.498 23.4075C13.3991 23.7476 13.3971 24.1086 13.4923 24.4497C11.5984 23.9531 9.52621 23.828 8.30218 25.052C7.07815 26.2761 7.20321 28.3497 7.69987 30.2443C7.30857 30.1214 6.88614 30.1431 6.50951 30.3055C6.13287 30.4679 5.82709 30.7602 5.64784 31.1291C5.55862 31.3428 5.51727 31.5735 5.52671 31.805C5.53614 32.0364 5.59613 32.263 5.70246 32.4688C5.95564 32.9413 6.38197 33.2973 6.892 33.4621C6.39083 35.0703 6.46322 36.8025 7.09684 38.3633C7.59185 39.5593 8.31817 40.6457 9.23411 41.5603C10.15 42.4749 11.2376 43.1996 12.4343 43.6928C13.742 44.2635 15.1525 44.5614 16.5793 44.5682C18.0355 44.6268 19.4791 44.2775 20.7476 43.56C22.016 42.8424 23.059 41.7849 23.7589 40.5066C27.4885 38.6163 28.8915 33.7029 26.9458 29.182C26.4518 27.9856 25.7264 26.8984 24.8114 25.9829C23.8963 25.0673 22.8096 24.3414 21.6134 23.8467ZM9.3185 26.0683C10.0631 25.3237 11.8823 25.3726 14.206 26.1747L17.8249 34.5719L9.42415 30.958C8.6249 28.6321 8.57459 26.813 9.3185 26.0683ZM22.918 39.3156C22.7625 39.3871 22.6376 39.5117 22.5658 39.6671C21.1204 42.8066 16.8294 44.0206 12.9999 42.3717C11.9788 41.9541 11.0501 41.3392 10.2669 40.5622C9.48375 39.7852 8.86153 38.8614 8.43587 37.8436C8.14217 37.1338 7.99348 36.3724 7.99854 35.6043C8.0036 34.8361 8.16231 34.0767 8.46534 33.3708C8.50426 33.2839 8.52551 33.1901 8.52786 33.0949C8.53022 32.9997 8.51362 32.905 8.47905 32.8162C8.44448 32.7275 8.39261 32.6465 8.32646 32.578C8.26032 32.5094 8.18121 32.4547 8.09374 32.4171L7.23915 32.0491C6.8079 31.8859 6.96531 31.4554 7.40806 31.6566L18.9117 36.6088C19.0438 36.6657 19.19 36.6817 19.3313 36.6546C19.4725 36.6275 19.6025 36.5586 19.7042 36.4569C19.8059 36.3552 19.8748 36.2253 19.9019 36.084C19.9289 35.9427 19.913 35.7965 19.8561 35.6644L14.9046 24.1579C14.7271 23.7885 15.0484 23.4794 15.2963 23.989L15.6643 24.8436C15.702 24.9311 15.7567 25.0103 15.8253 25.0765C15.8939 25.1427 15.975 25.1946 16.0638 25.2292C16.1526 25.2638 16.2474 25.2804 16.3427 25.278C16.438 25.2756 16.5319 25.2542 16.6188 25.2152C17.3246 24.9123 18.0839 24.7537 18.8519 24.7487C19.6199 24.7436 20.3812 24.8922 21.0909 25.1857C22.1094 25.6111 23.034 26.2333 23.8116 27.0166C24.5892 27.7999 25.2047 28.7289 25.6226 29.7505C27.2707 33.5786 26.0575 37.8702 22.918 39.3156Z" fill="#018D43"/>
</svg>
