<svg width="46" height="46" viewBox="0 0 46 46" fill="none" xmlns="http://www.w3.org/2000/svg">
<path d="M23.0002 27.2629C30.1202 27.2629 35.9126 21.4705 35.9126 14.3506C35.9126 7.23062 30.1202 1.4375 23.0002 1.4375C15.8803 1.4375 10.0879 7.23062 10.0879 14.3506C10.0879 21.4705 15.8803 27.2629 23.0002 27.2629ZM16.5796 23.856C16.9448 20.6152 19.7048 18.1161 23.0002 18.1161C26.2957 18.1161 29.0557 20.6159 29.4208 23.856C27.5873 25.0988 25.3771 25.8254 23.0002 25.8254C20.6233 25.8254 18.4132 25.0988 16.5796 23.856ZM23.0002 2.875C29.3274 2.875 34.4751 8.02269 34.4751 14.3506C34.4751 17.7122 33.0131 20.7309 30.7016 22.8318C29.8974 19.2992 26.7277 16.6786 22.9995 16.6786C19.2714 16.6786 16.1017 19.2984 15.2974 22.8318C12.9866 20.7309 11.5247 17.7122 11.5247 14.3506C11.5247 8.02269 16.6731 2.875 23.0002 2.875Z" fill="#018D43"/>
<path d="M23 14.5173C25.3776 14.5173 27.3125 12.5832 27.3125 10.2048C27.3125 7.82649 25.3783 5.89233 23 5.89233C20.6217 5.89233 18.6875 7.82649 18.6875 10.2048C18.6875 12.5832 20.6217 14.5173 23 14.5173ZM23 7.32983C24.5856 7.32983 25.875 8.61927 25.875 10.2048C25.875 11.7904 24.5856 13.0798 23 13.0798C21.4144 13.0798 20.125 11.7904 20.125 10.2048C20.125 8.61927 21.4144 7.32983 23 7.32983Z" fill="#018D43"/>
<path d="M30.1878 34.6753H25.2198L23.6845 29.9503C23.5882 29.6541 23.3122 29.4536 23.001 29.4536C22.6898 29.4536 22.4138 29.6541 22.3175 29.9503L20.7822 34.6753H15.8135C15.5023 34.6753 15.2263 34.8759 15.13 35.172C15.0337 35.4674 15.1393 35.7923 15.3909 35.9748L19.4101 38.8951L17.8749 43.6209C17.7786 43.917 17.8842 44.2412 18.1358 44.4237C18.3881 44.6077 18.7288 44.6077 18.981 44.4237L23.0003 41.5035L27.0195 44.4237C27.2718 44.607 27.6118 44.607 27.8648 44.4237C28.1171 44.2412 28.222 43.917 28.1257 43.6209L26.5904 38.8951L30.6097 35.9748C30.862 35.7923 30.9669 35.4674 30.8706 35.172C30.7743 34.8759 30.499 34.6753 30.1878 34.6753ZM25.3233 38.0405C25.071 38.2231 24.9661 38.548 25.0624 38.8434L26.0751 41.962L23.4229 40.0351C23.1706 39.8511 22.8299 39.8511 22.5777 40.0351L19.9255 41.962L20.9389 38.8434C21.0352 38.5472 20.9296 38.2231 20.678 38.0405L18.0258 36.1128H21.3048C21.616 36.1128 21.892 35.9123 21.9883 35.6162L23.0017 32.4982L24.0152 35.6162C24.1115 35.9123 24.3875 36.1128 24.6987 36.1128H27.9776L25.3254 38.0405H25.3233Z" fill="#018D43"/>
<path d="M44.5268 29.1396C44.4305 28.8434 44.1545 28.6429 43.8433 28.6429H39.4244L38.0588 24.4396C37.9625 24.1435 37.6865 23.943 37.3753 23.943C37.0641 23.943 36.7881 24.1435 36.6918 24.4396L35.3268 28.6429H30.9073C30.5953 28.6429 30.32 28.8434 30.2237 29.1396C30.1274 29.4357 30.2331 29.7598 30.4846 29.9424L34.0604 32.54L32.6955 36.7439C32.5992 37.0401 32.7048 37.3642 32.9564 37.5475C33.2087 37.7301 33.5494 37.7308 33.8017 37.5475L37.3767 34.9499L40.9525 37.5475C41.2055 37.7315 41.5448 37.7315 41.7978 37.5475C42.05 37.3649 42.155 37.0408 42.0587 36.7446L40.6938 32.5407L44.2688 29.9431C44.5211 29.7606 44.626 29.4357 44.5297 29.1403L44.5268 29.1396ZM39.423 31.6846C39.1707 31.8672 39.0658 32.1914 39.1621 32.4875L40.0059 35.0836L37.7972 33.4794C37.6707 33.3874 37.5226 33.3421 37.3746 33.3421C37.2265 33.3421 37.0777 33.3874 36.9519 33.4794L34.7447 35.0836L35.5878 32.4875C35.6841 32.1914 35.5784 31.8672 35.3268 31.6846L33.1188 30.0804H35.8487C36.1606 30.0804 36.4359 29.8799 36.5322 29.5837L37.3753 26.9883L38.2191 29.5837C38.3154 29.8799 38.5914 30.0804 38.9026 30.0804H41.6324L39.4244 31.6846H39.423Z" fill="#018D43"/>
<path d="M11.9406 32.54L15.5164 29.9424C15.7687 29.7598 15.8736 29.4357 15.7773 29.1396C15.681 28.8434 15.405 28.6429 15.0938 28.6429H10.6742L9.30856 24.4396C9.21225 24.1435 8.93625 23.943 8.62503 23.943C8.31381 23.943 8.03781 24.1435 7.9415 24.4396L6.57587 28.6429H2.15628C1.84506 28.6429 1.56906 28.8434 1.47275 29.1396C1.37643 29.4357 1.48209 29.7598 1.73365 29.9424L5.30943 32.54L3.94381 36.7439C3.8475 37.0393 3.95315 37.3642 4.20472 37.5468C4.457 37.7308 4.79768 37.7308 5.04997 37.5468L8.62575 34.9492L12.2015 37.5468C12.4531 37.7301 12.7945 37.7301 13.0468 37.5468C13.2991 37.3642 13.404 37.0393 13.3077 36.7439L11.9421 32.54H11.9406ZM9.04765 33.4794C8.92187 33.3874 8.77309 33.3421 8.62503 33.3421C8.47697 33.3421 8.32818 33.3874 8.2024 33.4794L5.9944 35.0836L6.83822 32.4875C6.93453 32.1921 6.82887 31.8672 6.57731 31.6846L4.36931 30.0804H7.0984C7.40962 30.0804 7.68562 29.8799 7.78193 29.5837L8.62503 26.9883L9.46812 29.5837C9.56444 29.8799 9.84043 30.0804 10.1517 30.0804H12.8807L10.6727 31.6846C10.4205 31.8672 10.3155 32.1921 10.4118 32.4875L11.2557 35.0836L9.04765 33.4794Z" fill="#018D43"/>
</svg>
