<svg width="142" height="78" viewBox="0 0 142 78" fill="none" xmlns="http://www.w3.org/2000/svg">
<path fill-rule="evenodd" clip-rule="evenodd" d="M36.9583 10.8458C40.6762 20.2684 37.7957 28.3595 34.5357 36.2293C27.1448 30.7809 23.3762 25.3747 22.3387 22.6442C23.146 29.9068 28.3121 34.3921 33.2503 38.479C28.3897 36.6157 18.9709 38.7994 14.2538 40.9637C20.3655 39.8287 27.6716 38.0107 34.0708 41.2816C26.7579 46.6392 16.2913 46.9566 5.36616 40.2065C10.9457 41.3436 21.1584 34.3867 29.3617 36.9261C22.8626 32.7998 18.5267 24.9594 18.2488 14.0882C19.9797 18.4338 28.0325 22.4908 32.1488 28.3989C32.3577 20.9697 36.4927 11.5801 33.8674 3.23809C39.9225 7.70697 45.2484 14.7437 44.6917 23.3146C43.7992 36.4817 29.4818 46.5854 50.0079 52.335C45.5799 52.6379 41.3268 50.7245 38.5555 47.2441C30.9209 37.5809 46.4909 27.8223 36.9583 10.8458Z" fill="#66BC46"/>
<path fill-rule="evenodd" clip-rule="evenodd" d="M112.831 27.862C110.763 35.11 113.484 40.8912 116.47 46.4809C121.546 41.9081 123.944 37.6305 124.514 35.5331C124.444 40.9695 120.945 44.6671 117.585 48.053C121.049 46.3192 128.182 47.2499 131.832 48.5088C127.224 48.1137 121.682 47.2998 117.181 50.188C122.985 53.6222 130.758 53.0947 138.357 47.3006C134.309 48.5491 126.241 44.1419 120.351 46.6198C124.864 43.091 127.505 36.9697 126.92 28.8998C125.955 32.2436 120.287 35.8344 117.668 40.5089C116.974 35.0231 113.229 28.3719 114.567 22.0037C110.408 25.7539 106.976 31.3523 108.011 37.658C109.629 47.3427 118.769 48.5088 107.664 61.7164C110.965 61.6181 112.495 57.7086 114.294 54.9297C119.245 47.2183 107.007 41.1269 112.831 27.862Z" fill="#66BC46"/>
<mask id="path-3-outside-1_226_2" maskUnits="userSpaceOnUse" x="38.0146" y="29.0144" width="52" height="24" fill="black">
<rect fill="white" x="38.0146" y="29.0144" width="52" height="24"/>
<path d="M49.0993 52.4353C46.9842 52.4353 45.1174 51.9713 43.4987 51.0432C41.8801 50.1152 40.6175 48.8095 39.7111 47.1261C38.8262 45.4427 38.3838 43.5111 38.3838 41.3313C38.3838 39.1299 38.8262 37.1876 39.7111 35.5042C40.596 33.8208 41.8477 32.515 43.4664 31.587C45.085 30.659 46.9627 30.195 49.0993 30.195C51.2143 30.195 53.0812 30.659 54.6998 31.587C56.3185 32.4935 57.5702 33.7776 58.4551 35.4394C59.34 37.1012 59.7824 39.022 59.7824 41.2018C59.7824 43.4248 59.34 45.3887 58.4551 47.0937C57.5702 48.7771 56.3185 50.0936 54.6998 51.0432C53.0812 51.9713 51.2143 52.4353 49.0993 52.4353ZM49.0993 48.3239C50.869 48.3239 52.2826 47.6872 53.3402 46.4139C54.4193 45.1406 54.9588 43.4464 54.9588 41.3313C54.9588 39.9501 54.7106 38.7307 54.2142 37.6732C53.7394 36.5941 53.0488 35.7739 52.1424 35.2128C51.2575 34.6301 50.2431 34.3387 49.0993 34.3387C47.9554 34.3387 46.9303 34.6301 46.0238 35.2128C45.139 35.7739 44.4484 36.5941 43.952 37.6732C43.4772 38.7307 43.2398 39.9501 43.2398 41.3313C43.2398 42.7126 43.4772 43.932 43.952 44.9895C44.4484 46.047 45.139 46.8671 46.0238 47.4498C46.9087 48.0325 47.9339 48.3239 49.0993 48.3239ZM63.1884 35.3423H67.6559V37.9321C68.9724 35.9034 70.7529 34.8891 72.9975 34.8891C74.2708 34.8891 75.3499 35.1912 76.2348 35.7955C77.1412 36.3782 77.7995 37.2199 78.2095 38.3206C78.9649 37.1336 79.8066 36.2703 80.7346 35.7308C81.6842 35.1696 82.7633 34.8891 83.9719 34.8891C85.7632 34.8891 87.1553 35.4286 88.1481 36.5077C89.1624 37.5652 89.6696 39.0436 89.6696 40.9428V52.0144H85.105V41.655C85.105 40.7918 84.8892 40.1227 84.4575 39.6479C84.0475 39.1515 83.4863 38.9033 82.7741 38.9033C81.8893 38.9033 81.0691 39.2702 80.3138 40.004C79.5584 40.7378 78.9973 41.6766 78.6304 42.8205V52.0144H74.0658V41.655C74.0658 40.8133 73.8499 40.1443 73.4183 39.6479C72.9867 39.1515 72.4147 38.9033 71.7025 38.9033C70.904 38.9033 70.1486 39.2055 69.4364 39.8098C68.7458 40.3925 68.1847 41.2234 67.753 42.3025V52.0144H63.1884V35.3423Z"/>
</mask>
<path d="M49.0993 52.4353C46.9842 52.4353 45.1174 51.9713 43.4987 51.0432C41.8801 50.1152 40.6175 48.8095 39.7111 47.1261C38.8262 45.4427 38.3838 43.5111 38.3838 41.3313C38.3838 39.1299 38.8262 37.1876 39.7111 35.5042C40.596 33.8208 41.8477 32.515 43.4664 31.587C45.085 30.659 46.9627 30.195 49.0993 30.195C51.2143 30.195 53.0812 30.659 54.6998 31.587C56.3185 32.4935 57.5702 33.7776 58.4551 35.4394C59.34 37.1012 59.7824 39.022 59.7824 41.2018C59.7824 43.4248 59.34 45.3887 58.4551 47.0937C57.5702 48.7771 56.3185 50.0936 54.6998 51.0432C53.0812 51.9713 51.2143 52.4353 49.0993 52.4353ZM49.0993 48.3239C50.869 48.3239 52.2826 47.6872 53.3402 46.4139C54.4193 45.1406 54.9588 43.4464 54.9588 41.3313C54.9588 39.9501 54.7106 38.7307 54.2142 37.6732C53.7394 36.5941 53.0488 35.7739 52.1424 35.2128C51.2575 34.6301 50.2431 34.3387 49.0993 34.3387C47.9554 34.3387 46.9303 34.6301 46.0238 35.2128C45.139 35.7739 44.4484 36.5941 43.952 37.6732C43.4772 38.7307 43.2398 39.9501 43.2398 41.3313C43.2398 42.7126 43.4772 43.932 43.952 44.9895C44.4484 46.047 45.139 46.8671 46.0238 47.4498C46.9087 48.0325 47.9339 48.3239 49.0993 48.3239ZM63.1884 35.3423H67.6559V37.9321C68.9724 35.9034 70.7529 34.8891 72.9975 34.8891C74.2708 34.8891 75.3499 35.1912 76.2348 35.7955C77.1412 36.3782 77.7995 37.2199 78.2095 38.3206C78.9649 37.1336 79.8066 36.2703 80.7346 35.7308C81.6842 35.1696 82.7633 34.8891 83.9719 34.8891C85.7632 34.8891 87.1553 35.4286 88.1481 36.5077C89.1624 37.5652 89.6696 39.0436 89.6696 40.9428V52.0144H85.105V41.655C85.105 40.7918 84.8892 40.1227 84.4575 39.6479C84.0475 39.1515 83.4863 38.9033 82.7741 38.9033C81.8893 38.9033 81.0691 39.2702 80.3138 40.004C79.5584 40.7378 78.9973 41.6766 78.6304 42.8205V52.0144H74.0658V41.655C74.0658 40.8133 73.8499 40.1443 73.4183 39.6479C72.9867 39.1515 72.4147 38.9033 71.7025 38.9033C70.904 38.9033 70.1486 39.2055 69.4364 39.8098C68.7458 40.3925 68.1847 41.2234 67.753 42.3025V52.0144H63.1884V35.3423Z" fill="black"/>
<path d="M43.4987 51.0432L43.6598 50.7624L43.4987 51.0432ZM39.7111 47.1261L39.4245 47.2767L39.4261 47.2796L39.7111 47.1261ZM39.7111 35.5042L39.4245 35.3535H39.4245L39.7111 35.5042ZM43.4664 31.587L43.3054 31.3062V31.3062L43.4664 31.587ZM54.6998 31.587L54.5388 31.8679L54.5417 31.8695L54.6998 31.587ZM58.4551 35.4394L58.1694 35.5916L58.4551 35.4394ZM58.4551 47.0937L58.7417 47.2444L58.7424 47.2429L58.4551 47.0937ZM54.6998 51.0432L54.8609 51.3241L54.8636 51.3225L54.6998 51.0432ZM53.3402 46.4139L53.0932 46.2046L53.0911 46.2071L53.3402 46.4139ZM54.2142 37.6732L53.9178 37.8036L53.9212 37.8107L54.2142 37.6732ZM52.1424 35.2128L51.9642 35.4833L51.972 35.4881L52.1424 35.2128ZM46.0238 35.2128L46.1972 35.4862L46.1989 35.4851L46.0238 35.2128ZM43.952 37.6732L43.6579 37.5379L43.6566 37.5406L43.952 37.6732ZM43.952 44.9895L43.6566 45.1221L43.6589 45.127L43.952 44.9895ZM46.0238 47.4498L46.2019 47.1795L46.0238 47.4498ZM49.0993 52.1116C47.0331 52.1116 45.2232 51.6587 43.6598 50.7624L43.3377 51.3241C45.0117 52.2838 46.9354 52.759 49.0993 52.759V52.1116ZM43.6598 50.7624C42.0949 49.8652 40.8747 48.6042 39.9961 46.9726L39.4261 47.2796C40.3604 49.0148 41.6653 50.3652 43.3377 51.3241L43.6598 50.7624ZM39.9977 46.9755C39.1406 45.3449 38.7075 43.4664 38.7075 41.3313H38.0601C38.0601 43.5559 38.5119 45.5405 39.4245 47.2767L39.9977 46.9755ZM38.7075 41.3313C38.7075 39.1741 39.1408 37.2849 39.9977 35.6548L39.4245 35.3535C38.5117 37.0902 38.0601 39.0858 38.0601 41.3313H38.7075ZM39.9977 35.6548C40.8545 34.0247 42.0632 32.7647 43.6274 31.8679L43.3054 31.3062C41.6323 32.2654 40.3374 33.6168 39.4245 35.3535L39.9977 35.6548ZM43.6274 31.8679C45.1903 30.9718 47.0108 30.5187 49.0993 30.5187V29.8712C46.9145 29.8712 44.9798 30.3462 43.3054 31.3062L43.6274 31.8679ZM49.0993 30.5187C51.1655 30.5187 52.9754 30.9715 54.5388 31.8679L54.8609 31.3062C53.1869 30.3465 51.2631 29.8712 49.0993 29.8712V30.5187ZM54.5417 31.8695C56.1053 32.7451 57.3132 33.9836 58.1694 35.5916L58.7409 35.2873C57.8273 33.5715 56.5316 32.2418 54.858 31.3046L54.5417 31.8695ZM58.1694 35.5916C59.0256 37.1996 59.4587 39.0667 59.4587 41.2018H60.1061C60.1061 38.9774 59.6543 37.0028 58.7409 35.2873L58.1694 35.5916ZM59.4587 41.2018C59.4587 43.3811 59.0252 45.2924 58.1678 46.9446L58.7424 47.2429C59.6547 45.485 60.1061 43.4685 60.1061 41.2018H59.4587ZM58.1686 46.9431C57.3114 48.5738 56.1018 49.8454 54.536 50.764L54.8636 51.3225C56.5351 50.3419 57.8291 48.9805 58.7417 47.2444L58.1686 46.9431ZM54.5388 50.7624C52.9754 51.6587 51.1655 52.1116 49.0993 52.1116V52.759C51.2631 52.759 53.1869 52.2838 54.8609 51.3241L54.5388 50.7624ZM49.0993 48.6476C50.9577 48.6476 52.4655 47.9738 53.5892 46.6207L53.0911 46.2071C52.0998 47.4007 50.7804 48.0002 49.0993 48.0002V48.6476ZM53.5871 46.6232C54.7279 45.2771 55.2826 43.502 55.2826 41.3313H54.6351C54.6351 43.3907 54.1107 45.004 53.0932 46.2046L53.5871 46.6232ZM55.2826 41.3313C55.2826 39.9111 55.0272 38.6433 54.5073 37.5356L53.9212 37.8107C54.394 38.818 54.6351 39.989 54.6351 41.3313H55.2826ZM54.5106 37.5428C54.0123 36.4104 53.2807 35.5368 52.3128 34.9375L51.972 35.4881C52.8169 36.0111 53.4666 36.7777 53.9179 37.8035L54.5106 37.5428ZM52.3204 34.9424C51.3785 34.3221 50.3012 34.015 49.0993 34.015V34.6625C50.1851 34.6625 51.1365 34.9381 51.9643 35.4832L52.3204 34.9424ZM49.0993 34.015C47.8974 34.015 46.8107 34.3221 45.8488 34.9405L46.1989 35.4851C47.0499 34.9381 48.0135 34.6625 49.0993 34.6625V34.015ZM45.8505 34.9394C44.9061 35.5383 44.1768 36.4099 43.6579 37.5379L44.2461 37.8084C44.72 36.7783 45.3719 36.0096 46.1972 35.4862L45.8505 34.9394ZM43.6566 37.5406C43.1599 38.647 42.916 39.913 42.916 41.3313H43.5635C43.5635 39.9872 43.7945 38.8144 44.2473 37.8058L43.6566 37.5406ZM42.916 41.3313C42.916 42.7497 43.1599 44.0156 43.6566 45.1221L44.2473 44.8569C43.7945 43.8483 43.5635 42.6755 43.5635 41.3313H42.916ZM43.6589 45.127C44.178 46.2329 44.9061 47.1014 45.8458 47.7202L46.2019 47.1795C45.3719 46.6329 44.7187 45.8611 44.245 44.8519L43.6589 45.127ZM45.8458 47.7202C46.7888 48.3412 47.8772 48.6476 49.0993 48.6476V48.0002C47.9906 48.0002 47.0287 47.7239 46.2019 47.1795L45.8458 47.7202ZM63.1884 35.3423V35.0186H62.8647V35.3423H63.1884ZM67.6559 35.3423H67.9796V35.0186H67.6559V35.3423ZM67.6559 37.9321H67.3322V39.0257L67.9275 38.1084L67.6559 37.9321ZM76.2348 35.7955L76.0521 36.063L76.0597 36.0678L76.2348 35.7955ZM78.2095 38.3206L77.9062 38.4336L78.1333 39.0434L78.4826 38.4944L78.2095 38.3206ZM80.7346 35.7308L80.8973 36.0106L80.8993 36.0095L80.7346 35.7308ZM88.1481 36.5077L87.9098 36.727L87.9144 36.7318L88.1481 36.5077ZM89.6696 52.0144V52.3382H89.9933V52.0144H89.6696ZM85.105 52.0144H84.7813V52.3382H85.105V52.0144ZM84.4575 39.6479L84.2079 39.8541L84.2128 39.86L84.218 39.8657L84.4575 39.6479ZM80.3138 40.004L80.5393 40.2362L80.3138 40.004ZM78.6304 42.8205L78.3221 42.7216L78.3066 42.7698V42.8205H78.6304ZM78.6304 52.0144V52.3382H78.9541V52.0144H78.6304ZM74.0658 52.0144H73.742V52.3382H74.0658V52.0144ZM73.4183 39.6479L73.174 39.8603H73.174L73.4183 39.6479ZM69.4364 39.8098L69.6452 40.0572L69.6459 40.0566L69.4364 39.8098ZM67.753 42.3025L67.4524 42.1823L67.4293 42.2402V42.3025H67.753ZM67.753 52.0144V52.3382H68.0767V52.0144H67.753ZM63.1884 52.0144H62.8647V52.3382H63.1884V52.0144ZM63.1884 35.666H67.6559V35.0186H63.1884V35.666ZM67.3322 35.3423V37.9321H67.9796V35.3423H67.3322ZM67.9275 38.1084C69.1898 36.1631 70.8723 35.2128 72.9975 35.2128V34.5653C70.6335 34.5653 68.755 35.6437 67.3843 37.7559L67.9275 38.1084ZM72.9975 35.2128C74.2182 35.2128 75.2306 35.5018 76.0522 36.0629L76.4173 35.5282C75.4692 34.8807 74.3234 34.5653 72.9975 34.5653V35.2128ZM76.0597 36.0678C76.9019 36.6093 77.5182 37.3923 77.9062 38.4336L78.5129 38.2076C78.0807 37.0476 77.3805 36.1472 76.4098 35.5232L76.0597 36.0678ZM78.4826 38.4944C79.2185 37.338 80.0258 36.5174 80.8973 36.0106L80.5719 35.4509C79.5874 36.0233 78.7112 36.9292 77.9364 38.1468L78.4826 38.4944ZM80.8993 36.0095C81.7943 35.4806 82.8156 35.2128 83.9719 35.2128V34.5653C82.7111 34.5653 81.5741 34.8587 80.5699 35.4521L80.8993 36.0095ZM83.9719 35.2128C85.6943 35.2128 86.9916 35.7289 87.9098 36.7269L88.3863 36.2885C87.319 35.1284 85.8321 34.5653 83.9719 34.5653V35.2128ZM87.9144 36.7318C88.8554 37.7128 89.3459 39.1015 89.3459 40.9428H89.9933C89.9933 38.9857 89.4695 37.4177 88.3817 36.2836L87.9144 36.7318ZM89.3459 40.9428V52.0144H89.9933V40.9428H89.3459ZM89.6696 51.6907H85.105V52.3382H89.6696V51.6907ZM85.4287 52.0144V41.655H84.7813V52.0144H85.4287ZM85.4287 41.655C85.4287 40.7395 85.1993 39.9826 84.6971 39.4302L84.218 39.8657C84.5791 40.2629 84.7813 40.8441 84.7813 41.655H85.4287ZM84.7071 39.4417C84.2285 38.8624 83.5713 38.5796 82.7741 38.5796V39.2271C83.4014 39.2271 83.8664 39.4407 84.2079 39.8541L84.7071 39.4417ZM82.7741 38.5796C81.7893 38.5796 80.8917 38.9913 80.0882 39.7718L80.5393 40.2362C81.2466 39.5492 81.9892 39.2271 82.7741 39.2271V38.5796ZM80.0882 39.7718C79.2897 40.5475 78.7029 41.5344 78.3221 42.7216L78.9386 42.9194C79.2916 41.8189 79.8271 40.9281 80.5393 40.2362L80.0882 39.7718ZM78.3066 42.8205V52.0144H78.9541V42.8205H78.3066ZM78.6304 51.6907H74.0658V52.3382H78.6304V51.6907ZM74.3895 52.0144V41.655H73.742V52.0144H74.3895ZM74.3895 41.655C74.3895 40.7577 74.1585 40.0057 73.6626 39.4355L73.174 39.8603C73.5414 40.2829 73.742 40.869 73.742 41.655H74.3895ZM73.6626 39.4355C73.1639 38.8621 72.4997 38.5796 71.7025 38.5796V39.2271C72.3298 39.2271 72.8094 39.441 73.174 39.8603L73.6626 39.4355ZM71.7025 38.5796C70.8146 38.5796 69.9872 38.9179 69.227 39.5629L69.6459 40.0566C70.31 39.4931 70.9934 39.2271 71.7025 39.2271V38.5796ZM69.2276 39.5624C68.4865 40.1877 67.8983 41.0676 67.4524 42.1823L68.0536 42.4227C68.471 41.3792 69.0051 40.5973 69.6452 40.0572L69.2276 39.5624ZM67.4293 42.3025V52.0144H68.0767V42.3025H67.4293ZM67.753 51.6907H63.1884V52.3382H67.753V51.6907ZM63.5121 52.0144V35.3423H62.8647V52.0144H63.5121Z" fill="black" mask="url(#path-3-outside-1_226_2)"/>
<path d="M63.4055 56.459V61.4319H62.484V56.459H63.4055ZM66.904 56.459L64.7826 58.7786L67.1265 61.4319H65.8502L63.9271 59.1089V58.5108L65.7772 56.459H66.904ZM68.9022 59.4775V56.459H69.8237V59.4775C69.8237 60.2704 70.2294 60.6669 71.0409 60.6669C71.8523 60.6669 72.258 60.2704 72.258 59.4775V56.459H73.1796V59.4775C73.1796 60.8037 72.4667 61.4667 71.0409 61.4667C69.6151 61.4667 68.9022 60.8037 68.9022 59.4775ZM77.5947 60.6321C78.6264 60.6321 79.1422 60.0247 79.1422 58.8099C79.1422 57.7759 78.6264 57.2589 77.5947 57.2589H76.5688V60.6321H77.5947ZM75.6473 61.4319V56.459H77.5947C79.2408 56.459 80.0638 57.2426 80.0638 58.8099C80.0638 60.5579 79.2408 61.4319 77.5947 61.4319H75.6473ZM82.2741 61.425V56.459H84.5346C85.55 56.459 86.0578 56.903 86.0578 57.7909C86.0578 58.3914 85.6625 58.8887 84.8719 59.2828L86.4472 61.4319H85.2857L83.773 59.2654V58.8446C84.654 58.6939 85.0945 58.352 85.0945 57.8187C85.0945 57.4524 84.8881 57.2693 84.4755 57.2693H83.2131V61.425H82.2741ZM88.821 61.4319H87.8751L89.986 56.459H90.9771L93.1332 61.4319H92.1421L91.5753 60.0757H89.9234L90.2399 59.2758H91.2414L90.459 57.4084L88.821 61.4319ZM98.4178 56.459V57.2589H96.9919V61.4319H96.0704V57.2589H94.6446V56.459H98.4178Z" fill="black"/>
<path fill-rule="evenodd" clip-rule="evenodd" d="M101.781 68.7214C92.8611 74.4937 80.654 78.0004 67.2699 78.0004C53.8859 78.0004 41.6788 74.4937 32.7584 68.7214C24.582 63.4306 18.985 56.0918 18.1279 47.6975H20.0821C21.8667 63.5531 42.3115 76.058 67.2699 76.058C89.8438 76.058 108.725 65.8284 113.448 52.1423L114.68 54.3492C112.289 59.9654 107.714 64.8825 101.781 68.7214ZM46.793 17.833C52.9894 15.9052 59.9347 14.8251 67.2699 14.8251C83.9803 14.8251 98.6674 20.4306 107.085 28.8943C107.332 28.2387 107.601 27.5779 107.887 26.9609C106.076 25.2206 104.026 23.614 101.781 22.1617C92.8611 16.3894 80.654 12.8827 67.2699 12.8827C59.8225 12.8827 52.7394 13.9685 46.3843 15.9262L46.793 17.833Z" fill="#66BC46"/>
</svg>
