<svg width="36" height="36" viewBox="0 0 36 36" fill="none" xmlns="http://www.w3.org/2000/svg">
<path d="M33 9.375V17.025C33 18.93 32.37 20.535 31.245 21.645C30.135 22.77 28.53 23.4 26.625 23.4V26.115C26.625 27.135 25.485 27.75 24.645 27.18L23.19 26.22C23.325 25.755 23.385 25.245 23.385 24.705V18.6C23.385 15.54 21.345 13.5 18.285 13.5H8.09999C7.88999 13.5 7.695 13.515 7.5 13.53V9.375C7.5 5.55 10.05 3 13.875 3H26.625C30.45 3 33 5.55 33 9.375Z" stroke="#018D43" stroke-width="1.44444" stroke-miterlimit="10" stroke-linecap="round" stroke-linejoin="round"/>
<path d="M23.385 18.6V24.705C23.385 25.245 23.325 25.755 23.19 26.22C22.635 28.425 20.805 29.805 18.285 29.805H14.205L9.675 32.82C9 33.285 8.09999 32.79 8.09999 31.98V29.805C6.56999 29.805 5.295 29.295 4.41 28.41C3.51 27.51 3 26.235 3 24.705V18.6C3 15.75 4.77 13.785 7.5 13.53C7.695 13.515 7.88999 13.5 8.09999 13.5H18.285C21.345 13.5 23.385 15.54 23.385 18.6Z" stroke="#018D43" stroke-width="1.44444" stroke-miterlimit="10" stroke-linecap="round" stroke-linejoin="round"/>
</svg>
