<svg width="53" height="52" viewBox="0 0 53 52" fill="none" xmlns="http://www.w3.org/2000/svg">
<rect x="0.736036" y="0.401075" width="51.1978" height="51.1978" rx="25.5989" stroke="#BFC2CC" stroke-width="0.802149"/>
<path d="M21.7835 19.7945C21.7833 20.2365 21.6075 20.6603 21.2948 20.9727C20.9821 21.2851 20.5581 21.4605 20.116 21.4603C19.674 21.4601 19.2502 21.2843 18.9378 20.9715C18.6254 20.6588 18.45 20.2348 18.4502 19.7928C18.4504 19.3508 18.6262 18.9269 18.9389 18.6145C19.2517 18.3021 19.6757 18.1267 20.1177 18.127C20.5597 18.1272 20.9836 18.303 21.296 18.6157C21.6084 18.9284 21.7837 19.3524 21.7835 19.7945ZM21.8335 22.6945H18.5002V33.1278H21.8335V22.6945ZM27.1002 22.6945H23.7835V33.1278H27.0669V27.6528C27.0669 24.6028 31.0419 24.3195 31.0419 27.6528V33.1278H34.3335V26.5195C34.3335 21.3778 28.4502 21.5695 27.0669 24.0945L27.1002 22.6945Z" fill="black"/>
</svg>
