<svg width="52" height="52" viewBox="0 0 52 52" fill="none" xmlns="http://www.w3.org/2000/svg">
<rect x="0.406446" y="0.401075" width="51.1978" height="51.1978" rx="25.5989" stroke="#BFC2CC" stroke-width="0.802149"/>
<path d="M34.7165 20.6281C34.0749 20.9198 33.3832 21.1114 32.6665 21.2031C33.3999 20.7614 33.9665 20.0614 34.2332 19.2198C33.5415 19.6364 32.7749 19.9281 31.9665 20.0948C31.3082 19.3781 30.3832 18.9614 29.3332 18.9614C27.3749 18.9614 25.7749 20.5614 25.7749 22.5364C25.7749 22.8198 25.8082 23.0948 25.8665 23.3531C22.8999 23.2031 20.2582 21.7781 18.4999 19.6198C18.1915 20.1448 18.0165 20.7614 18.0165 21.4114C18.0165 22.6531 18.6415 23.7531 19.6082 24.3781C19.0165 24.3781 18.4665 24.2114 17.9832 23.9614V23.9864C17.9832 25.7198 19.2165 27.1698 20.8499 27.4948C20.3255 27.6383 19.7749 27.6582 19.2415 27.5531C19.4679 28.2635 19.9112 28.8851 20.5091 29.3305C21.107 29.776 21.8294 30.0228 22.5749 30.0364C21.3112 31.0368 19.7449 31.5775 18.1332 31.5698C17.8499 31.5698 17.5665 31.5531 17.2832 31.5198C18.8665 32.5364 20.7499 33.1281 22.7665 33.1281C29.3332 33.1281 32.9415 27.6781 32.9415 22.9531C32.9415 22.7948 32.9415 22.6448 32.9332 22.4864C33.6332 21.9864 34.2332 21.3531 34.7165 20.6281Z" fill="black"/>
</svg>
