<svg width="53" height="52" viewBox="0 0 53 52" fill="none" xmlns="http://www.w3.org/2000/svg">
<rect x="1.071" y="0.401075" width="51.1978" height="51.1978" rx="25.5989" stroke="#BFC2CC" stroke-width="0.802149"/>
<g clip-path="url(#clip0_217_566)">
<path fill-rule="evenodd" clip-rule="evenodd" d="M26.9998 18.9614C27.7123 18.9614 28.4432 18.9798 29.1515 19.0098L29.9882 19.0498L30.789 19.0973L31.539 19.1481L32.224 19.2014C32.9674 19.2583 33.6669 19.5755 34.1994 20.0973C34.732 20.619 35.0635 21.3119 35.1357 22.0539L35.169 22.4081L35.2315 23.1664C35.2898 23.9523 35.3332 24.8089 35.3332 25.6281C35.3332 26.4473 35.2898 27.3039 35.2315 28.0898L35.169 28.8481C35.1582 28.9698 35.1473 29.0873 35.1357 29.2023C35.0635 29.9444 34.7319 30.6374 34.1991 31.1591C33.6664 31.6809 32.9667 31.998 32.2232 32.0548L31.5398 32.1073L30.7898 32.1589L29.9882 32.2064L29.1515 32.2464C28.4347 32.2776 27.7173 32.2937 26.9998 32.2948C26.2824 32.2937 25.565 32.2776 24.8482 32.2464L24.0115 32.2064L23.2107 32.1589L22.4607 32.1073L21.7757 32.0548C21.0323 31.9979 20.3328 31.6806 19.8002 31.1589C19.2677 30.6371 18.9361 29.9443 18.864 29.2023L18.8307 28.8481L18.7682 28.0898C18.7045 27.2707 18.6705 26.4496 18.6665 25.6281C18.6665 24.8089 18.7098 23.9523 18.7682 23.1664L18.8307 22.4081C18.8415 22.2864 18.8523 22.1689 18.864 22.0539C18.9361 21.312 19.2675 20.6193 19.7999 20.0975C20.3323 19.5758 21.0316 19.2585 21.7748 19.2014L22.459 19.1481L23.209 19.0973L24.0107 19.0498L24.8473 19.0098C25.5644 18.9786 26.2821 18.9625 26.9998 18.9614ZM25.3332 23.6073V27.6489C25.3332 28.0339 25.7498 28.2739 26.0832 28.0823L29.5832 26.0614C29.6593 26.0176 29.7226 25.9544 29.7666 25.8784C29.8106 25.8023 29.8337 25.716 29.8337 25.6281C29.8337 25.5402 29.8106 25.4539 29.7666 25.3778C29.7226 25.3017 29.6593 25.2386 29.5832 25.1948L26.0832 23.1748C26.0071 23.1309 25.9209 23.1078 25.8331 23.1078C25.7453 23.1078 25.6591 23.1309 25.583 23.1748C25.507 23.2188 25.4439 23.2819 25.4 23.358C25.3562 23.434 25.3331 23.5203 25.3332 23.6081V23.6073Z" fill="black"/>
</g>
<defs>
<clipPath id="clip0_217_566">
<rect width="20" height="20" fill="white" transform="translate(17 15.6279)"/>
</clipPath>
</defs>
</svg>
