<svg width="40" height="40" viewBox="0 0 40 40" fill="none" xmlns="http://www.w3.org/2000/svg">
<path d="M36.6163 30.55C36.6163 31.15 36.483 31.7667 36.1997 32.3667C35.9163 32.9667 35.5497 33.5334 35.0663 34.0667C34.2497 34.9667 33.3497 35.6167 32.333 36.0334C31.333 36.45 30.2497 36.6667 29.083 36.6667C27.383 36.6667 25.5663 36.2667 23.6497 35.45C21.733 34.6334 19.8163 33.5334 17.9163 32.15C15.9997 30.75 14.183 29.2 12.4497 27.4834C10.733 25.75 9.18301 23.9334 7.79967 22.0334C6.43301 20.1334 5.33301 18.2334 4.53301 16.35C3.73301 14.45 3.33301 12.6334 3.33301 10.9C3.33301 9.76671 3.53301 8.68337 3.93301 7.68337C4.33301 6.66671 4.96634 5.73337 5.84967 4.90004C6.91634 3.85004 8.08301 3.33337 9.31634 3.33337C9.78301 3.33337 10.2497 3.43337 10.6663 3.63337C11.0997 3.83337 11.483 4.13337 11.783 4.56671L15.6497 10.0167C15.9497 10.4334 16.1663 10.8167 16.3163 11.1834C16.4663 11.5334 16.5497 11.8834 16.5497 12.2C16.5497 12.6 16.433 13 16.1997 13.3834C15.983 13.7667 15.6663 14.1667 15.2663 14.5667L13.9997 15.8834C13.8163 16.0667 13.733 16.2834 13.733 16.55C13.733 16.6834 13.7497 16.8 13.783 16.9334C13.833 17.0667 13.883 17.1667 13.9163 17.2667C14.2163 17.8167 14.733 18.5334 15.4663 19.4C16.2163 20.2667 17.0163 21.15 17.883 22.0334C18.783 22.9167 19.6497 23.7334 20.533 24.4834C21.3997 25.2167 22.1163 25.7167 22.683 26.0167C22.7663 26.05 22.8663 26.1 22.983 26.15C23.1163 26.2 23.2497 26.2167 23.3997 26.2167C23.683 26.2167 23.8997 26.1167 24.083 25.9334L25.3497 24.6834C25.7663 24.2667 26.1663 23.95 26.5497 23.75C26.933 23.5167 27.3163 23.4 27.733 23.4C28.0497 23.4 28.383 23.4667 28.7497 23.6167C29.1163 23.7667 29.4997 23.9834 29.9163 24.2667L35.433 28.1834C35.8663 28.4834 36.1663 28.8334 36.3497 29.25C36.5163 29.6667 36.6163 30.0834 36.6163 30.55Z" stroke="#018D43" stroke-width="2" stroke-miterlimit="10"/>
<path d="M30.8333 15.0001C30.8333 14.0001 30.05 12.4667 28.8833 11.2167C27.8167 10.0667 26.4 9.16675 25 9.16675" stroke="#018D43" stroke-width="2" stroke-linecap="round" stroke-linejoin="round"/>
<path d="M36.6667 15C36.6667 8.55004 31.45 3.33337 25 3.33337" stroke="#018D43" stroke-width="2" stroke-linecap="round" stroke-linejoin="round"/>
</svg>
