<svg width="24" height="24" viewBox="0 0 24 24" fill="none" xmlns="http://www.w3.org/2000/svg">
<path d="M0.916992 12C0.916992 6.77563 0.916992 4.16229 2.53983 2.53946C4.16266 0.916626 6.77483 0.916626 12.0003 0.916626C17.2247 0.916626 19.838 0.916626 21.4608 2.53946C23.0837 4.16229 23.0837 6.77446 23.0837 12C23.0837 17.2243 23.0837 19.8376 21.4608 21.4605C19.838 23.0833 17.2258 23.0833 12.0003 23.0833C6.77599 23.0833 4.16266 23.0833 2.53983 21.4605C0.916992 19.8376 0.916992 17.2255 0.916992 12Z" stroke="black" stroke-width="1.5" stroke-linecap="round" stroke-linejoin="round"/>
<path d="M18.426 5.58325H18.4143M17.25 11.9999C17.25 13.3923 16.6969 14.7277 15.7123 15.7122C14.7277 16.6968 13.3924 17.2499 12 17.2499C10.6076 17.2499 9.27226 16.6968 8.28769 15.7122C7.30312 14.7277 6.75 13.3923 6.75 11.9999C6.75 10.6075 7.30312 9.27217 8.28769 8.28761C9.27226 7.30304 10.6076 6.74992 12 6.74992C13.3924 6.74992 14.7277 7.30304 15.7123 8.28761C16.6969 9.27217 17.25 10.6075 17.25 11.9999Z" stroke="black" stroke-width="1.5" stroke-linecap="round" stroke-linejoin="round"/>
</svg>
