<svg width="26" height="21" viewBox="0 0 26 21" fill="none" xmlns="http://www.w3.org/2000/svg">
<path d="M25.2035 2.99996C24.3052 3.40829 23.3369 3.67663 22.3335 3.80496C23.3602 3.18663 24.1535 2.20663 24.5269 1.02829C23.5585 1.61163 22.4852 2.01996 21.3535 2.25329C20.4319 1.24996 19.1369 0.666626 17.6669 0.666626C14.9252 0.666626 12.6852 2.90663 12.6852 5.67163C12.6852 6.06829 12.7319 6.45329 12.8135 6.81496C8.66021 6.60496 4.96188 4.60996 2.50021 1.58829C2.06854 2.32329 1.82354 3.18663 1.82354 4.09663C1.82354 5.83496 2.69854 7.37496 4.05188 8.24996C3.22354 8.24996 2.45354 8.01663 1.77688 7.66663V7.70163C1.77688 10.1283 3.50354 12.1583 5.79021 12.6133C5.05619 12.8151 4.28525 12.843 3.53854 12.695C3.85542 13.6895 4.476 14.5598 5.31306 15.1834C6.15012 15.807 7.16156 16.1526 8.20521 16.1716C6.43616 17.5722 4.24322 18.3293 1.98688 18.3183C1.59021 18.3183 1.19354 18.295 0.796875 18.2483C3.01354 19.6716 5.65021 20.5 8.47354 20.5C17.6669 20.5 22.7185 12.87 22.7185 6.25496C22.7185 6.03329 22.7185 5.82329 22.7069 5.60163C23.6869 4.90163 24.5269 4.01496 25.2035 2.99996Z" fill="#00B3FF"/>
</svg>
