<svg width="24" height="20" viewBox="0 0 24 20" fill="none" xmlns="http://www.w3.org/2000/svg">
<path fill-rule="evenodd" clip-rule="evenodd" d="M11.9997 0.666626C12.9972 0.666626 14.0203 0.692293 15.012 0.734293L16.1833 0.790293L17.3045 0.856793L18.3545 0.927959L19.3135 1.00263C20.3542 1.08228 21.3335 1.5264 22.0791 2.25684C22.8247 2.98728 23.2888 3.95726 23.3898 4.99613L23.4365 5.49196L23.524 6.55363C23.6057 7.65379 23.6663 8.85313 23.6663 9.99996C23.6663 11.1468 23.6057 12.3461 23.524 13.4463L23.4365 14.508C23.4213 14.6783 23.4062 14.8428 23.3898 15.0038C23.2888 16.0428 22.8245 17.013 22.0787 17.7434C21.3328 18.4739 20.3533 18.9179 19.3123 18.9973L18.3557 19.0708L17.3057 19.1431L16.1833 19.2096L15.012 19.2656C14.0085 19.3092 13.0041 19.3318 11.9997 19.3333C10.9952 19.3318 9.99087 19.3092 8.98734 19.2656L7.81601 19.2096L6.69484 19.1431L5.64484 19.0708L4.68584 18.9973C3.64512 18.9176 2.66582 18.4735 1.92023 17.7431C1.17463 17.0126 0.710511 16.0427 0.609508 15.0038L0.562841 14.508L0.475341 13.4463C0.386135 12.2996 0.338659 11.1501 0.333008 9.99996C0.333008 8.85313 0.393674 7.65379 0.475341 6.55363L0.562841 5.49196C0.578008 5.32163 0.593174 5.15713 0.609508 4.99613C0.710472 3.95744 1.17443 2.98761 1.91978 2.25719C2.66514 1.52678 3.64416 1.08255 4.68467 1.00263L5.64251 0.927959L6.69251 0.856793L7.81484 0.790293L8.98617 0.734293C9.99009 0.690698 10.9948 0.668137 11.9997 0.666626ZM9.66634 7.17079V12.8291C9.66634 13.3681 10.2497 13.7041 10.7163 13.4358L15.6163 10.6066C15.723 10.5452 15.8115 10.4569 15.8731 10.3503C15.9347 10.2438 15.9671 10.123 15.9671 9.99996C15.9671 9.87693 15.9347 9.75607 15.8731 9.64957C15.8115 9.54306 15.723 9.45467 15.6163 9.39329L10.7163 6.56529C10.6099 6.50384 10.4891 6.47149 10.3662 6.47151C10.2433 6.47153 10.1226 6.50391 10.0161 6.5654C9.90972 6.6269 9.82136 6.71533 9.75996 6.8218C9.69855 6.92828 9.66626 7.04905 9.66634 7.17196V7.17079Z" fill="#FF0000"/>
</svg>
