<svg width="12" height="12" viewBox="0 0 12 12" fill="none" xmlns="http://www.w3.org/2000/svg">
<path d="M5.61351 0.449298C5.71909 0.0533895 6.28091 0.0533887 6.38649 0.449297L6.92979 2.4866C7.00144 2.75525 7.31854 2.87067 7.54611 2.71092L9.27185 1.49948C9.60721 1.26406 10.0376 1.6252 9.86399 1.99635L8.97063 3.90624C8.85283 4.15809 9.02156 4.45033 9.29857 4.47424L11.3993 4.65551C11.8075 4.69074 11.905 5.24403 11.5335 5.41675L9.62148 6.30557C9.36935 6.42278 9.31075 6.75511 9.50759 6.95147L11.0003 8.44064C11.2904 8.73003 11.0095 9.21658 10.6138 9.11006L8.5778 8.56192C8.30932 8.48964 8.05081 8.70656 8.07537 8.98351L8.26164 11.0838C8.29783 11.4919 7.76989 11.6841 7.53527 11.3481L6.32793 9.61952C6.16873 9.39158 5.83127 9.39158 5.67207 9.61952L4.46473 11.3481C4.23011 11.6841 3.70217 11.4919 3.73836 11.0838L3.92463 8.98351C3.94919 8.70656 3.69068 8.48964 3.4222 8.56192L1.3862 9.11006C0.990541 9.21658 0.709627 8.73003 0.999704 8.44064L2.49241 6.95148C2.68925 6.75511 2.63065 6.42278 2.37852 6.30557L0.466512 5.41675C0.0949516 5.24403 0.192511 4.69074 0.600738 4.65551L2.70143 4.47424C2.97844 4.45033 3.14717 4.15809 3.02937 3.90624L2.13601 1.99635C1.9624 1.6252 2.39278 1.26406 2.72815 1.49948L4.45389 2.71092C4.68146 2.87067 4.99856 2.75525 5.07021 2.4866L5.61351 0.449298Z" fill="#018D43"/>
</svg>
