<svg width="93" height="70" viewBox="0 0 93 70" fill="none" xmlns="http://www.w3.org/2000/svg">
<path d="M59.5 40C59.5 45.8345 57.7699 51.5381 54.5284 56.3893C51.2869 61.2406 46.6796 65.0217 41.2892 67.2544C35.8987 69.4872 29.9673 70.0714 24.2448 68.9332C18.5224 67.7949 13.266 64.9853 9.14035 60.8596C5.0147 56.734 2.2051 51.4776 1.06683 45.7552C-0.0714298 40.0327 0.512769 34.1013 2.74555 28.7108C4.97834 23.3204 8.75943 18.7131 13.6107 15.4716C18.4619 12.2301 24.1655 10.5 30 10.5" stroke="#161616"/>
<path d="M43.996 3.6H50.164V4.944H45.436V6.948H49.78V8.256H45.436V10.656H50.164V12H43.996V3.6ZM50.8441 12L53.1121 9.024L50.8801 6.156H52.5241L54.0361 8.22L55.5721 6.156H57.2041L54.9721 9.024L57.2521 12H55.6201L54.0361 9.804L52.4881 12H50.8441ZM58.0503 6.156H59.2503L59.4543 7.74H59.4903C59.6903 7.196 60.0023 6.776 60.4263 6.48C60.8503 6.184 61.3543 6.036 61.9383 6.036C62.8743 6.036 63.5823 6.3 64.0623 6.828C64.5503 7.356 64.7943 8.108 64.7943 9.084C64.7943 10.052 64.5423 10.8 64.0383 11.328C63.5423 11.856 62.8103 12.12 61.8423 12.12C61.2823 12.12 60.7943 11.972 60.3783 11.676C59.9703 11.372 59.6663 10.948 59.4663 10.404H59.4423L59.4543 14.04H58.0503V6.156ZM61.4103 10.836C62.0983 10.836 62.5983 10.696 62.9103 10.416C63.2303 10.136 63.3903 9.692 63.3903 9.084C63.3903 8.468 63.2303 8.02 62.9103 7.74C62.5983 7.46 62.0983 7.32 61.4103 7.32C60.7303 7.32 60.2263 7.464 59.8983 7.752C59.5783 8.04 59.4183 8.484 59.4183 9.084C59.4183 10.252 60.0823 10.836 61.4103 10.836ZM65.8364 10.404V3.6H67.2404V10.74L67.2644 10.764H68.3084V12H67.3124C66.3284 11.952 65.8364 11.42 65.8364 10.404ZM69.9266 6.828C70.5586 6.3 71.3866 6.036 72.4106 6.036C73.4506 6.036 74.2826 6.304 74.9066 6.84C75.5306 7.376 75.8426 8.124 75.8426 9.084C75.8426 10.052 75.5266 10.8 74.8946 11.328C74.2626 11.856 73.4346 12.12 72.4106 12.12C71.3786 12.12 70.5466 11.856 69.9146 11.328C69.2906 10.792 68.9786 10.044 68.9786 9.084C68.9786 8.116 69.2946 7.364 69.9266 6.828ZM70.3826 9.084C70.3826 9.7 70.5546 10.144 70.8986 10.416C71.2346 10.696 71.7386 10.836 72.4106 10.836C73.0826 10.836 73.5866 10.696 73.9226 10.416C74.2666 10.136 74.4386 9.692 74.4386 9.084C74.4386 8.484 74.2786 8.04 73.9586 7.752C73.6386 7.464 73.1226 7.32 72.4106 7.32C71.7066 7.32 71.1906 7.464 70.8626 7.752C70.5426 8.04 70.3826 8.484 70.3826 9.084ZM76.9458 6.156H78.1458L78.3498 7.752H78.3738C78.5498 7.072 78.8578 6.632 79.2978 6.432C79.7458 6.232 80.2698 6.132 80.8698 6.132C81.0218 6.132 81.1778 6.136 81.3378 6.144L81.1458 7.44C81.0338 7.432 80.9218 7.428 80.8098 7.428C80.1538 7.428 79.5778 7.608 79.0818 7.968C78.5938 8.32 78.3498 8.928 78.3498 9.792V12H76.9458V6.156ZM82.7793 6.828C83.3313 6.3 84.0913 6.036 85.0592 6.036C86.1233 6.036 86.8913 6.312 87.3633 6.864C87.8353 7.416 88.0713 8.128 88.0713 9C88.0713 9.112 88.0673 9.228 88.0593 9.348H83.2833C83.3313 10.404 83.9273 10.932 85.0713 10.932C85.9673 10.932 86.5073 10.584 86.6913 9.888L87.8433 10.32C87.7153 10.816 87.4273 11.24 86.9793 11.592C86.5313 11.944 85.9033 12.12 85.0953 12.12C84.0873 12.12 83.3073 11.856 82.7553 11.328C82.2113 10.792 81.9393 10.044 81.9393 9.084C81.9393 8.116 82.2193 7.364 82.7793 6.828ZM83.2713 8.58H86.7633C86.7073 7.636 86.1433 7.164 85.0713 7.164C83.9673 7.164 83.3673 7.636 83.2713 8.58ZM48.004 21.6C48.996 21.6 49.744 21.82 50.248 22.26C50.752 22.7 51.004 23.336 51.004 24.168C51.004 24.992 50.752 25.64 50.248 26.112C49.752 26.576 49.004 26.808 48.004 26.808H45.46V30H43.996V21.6H48.004ZM45.46 22.872V25.536H48.016C48.52 25.536 48.892 25.424 49.132 25.2C49.372 24.976 49.492 24.632 49.492 24.168C49.492 23.712 49.372 23.384 49.132 23.184C48.892 22.976 48.52 22.872 48.016 22.872H45.46ZM52.0434 24.156H53.2434L53.4474 25.752H53.4714C53.6474 25.072 53.9554 24.632 54.3954 24.432C54.8434 24.232 55.3674 24.132 55.9674 24.132C56.1194 24.132 56.2754 24.136 56.4354 24.144L56.2434 25.44C56.1314 25.432 56.0194 25.428 55.9074 25.428C55.2514 25.428 54.6754 25.608 54.1794 25.968C53.6914 26.32 53.4474 26.928 53.4474 27.792V30H52.0434V24.156ZM57.9969 24.828C58.6289 24.3 59.4569 24.036 60.4809 24.036C61.5209 24.036 62.3529 24.304 62.9769 24.84C63.6009 25.376 63.9129 26.124 63.9129 27.084C63.9129 28.052 63.5969 28.8 62.9649 29.328C62.3329 29.856 61.5049 30.12 60.4809 30.12C59.4489 30.12 58.6169 29.856 57.9849 29.328C57.3609 28.792 57.0489 28.044 57.0489 27.084C57.0489 26.116 57.3649 25.364 57.9969 24.828ZM58.4529 27.084C58.4529 27.7 58.6249 28.144 58.9689 28.416C59.3049 28.696 59.8089 28.836 60.4809 28.836C61.1529 28.836 61.6569 28.696 61.9929 28.416C62.3369 28.136 62.5089 27.692 62.5089 27.084C62.5089 26.484 62.3489 26.04 62.0289 25.752C61.7089 25.464 61.1929 25.32 60.4809 25.32C59.7769 25.32 59.2609 25.464 58.9329 25.752C58.6129 26.04 58.4529 26.484 58.4529 27.084ZM64.7364 27.084C64.7364 26.108 64.9764 25.356 65.4564 24.828C65.9444 24.3 66.6564 24.036 67.5924 24.036C68.1764 24.036 68.6804 24.184 69.1044 24.48C69.5364 24.776 69.8524 25.196 70.0524 25.74H70.0764V21.6H71.4804V30H70.2804L70.0764 28.44H70.0524C69.8524 28.976 69.5444 29.392 69.1284 29.688C68.7204 29.976 68.2404 30.12 67.6884 30.12C66.7204 30.12 65.9844 29.856 65.4804 29.328C64.9844 28.8 64.7364 28.052 64.7364 27.084ZM66.1404 27.084C66.1404 27.692 66.2964 28.136 66.6084 28.416C66.9284 28.696 67.4324 28.836 68.1204 28.836C69.4564 28.836 70.1244 28.252 70.1244 27.084C70.1244 26.484 69.9604 26.04 69.6324 25.752C69.3044 25.464 68.8004 25.32 68.1204 25.32C67.4324 25.32 66.9284 25.46 66.6084 25.74C66.2964 26.02 66.1404 26.468 66.1404 27.084ZM73.088 24.156H74.48V27.204C74.48 27.78 74.604 28.196 74.852 28.452C75.1 28.708 75.488 28.836 76.016 28.836C76.6 28.836 77.048 28.672 77.36 28.344C77.68 28.008 77.84 27.516 77.84 26.868V24.156H79.244V30H78.044L77.84 28.512H77.816C77.48 29.584 76.712 30.12 75.512 30.12C73.896 30.12 73.088 29.268 73.088 27.564V24.156ZM81.3987 24.828C82.0147 24.3 82.8587 24.036 83.9307 24.036C84.8507 24.036 85.5667 24.228 86.0787 24.612C86.5907 24.988 86.9307 25.56 87.0987 26.328L85.7427 26.628C85.6627 26.172 85.4787 25.84 85.1907 25.632C84.9107 25.424 84.4907 25.32 83.9307 25.32C83.2187 25.32 82.6947 25.464 82.3587 25.752C82.0307 26.04 81.8667 26.484 81.8667 27.084C81.8667 27.676 82.0307 28.116 82.3587 28.404C82.6947 28.692 83.2187 28.836 83.9307 28.836C84.5147 28.836 84.9387 28.732 85.2027 28.524C85.4747 28.308 85.6547 27.964 85.7427 27.492L87.0987 27.792C86.9227 28.576 86.5787 29.16 86.0667 29.544C85.5547 29.928 84.8427 30.12 83.9307 30.12C82.8587 30.12 82.0147 29.852 81.3987 29.316C80.7827 28.78 80.4747 28.036 80.4747 27.084C80.4747 26.116 80.7827 25.364 81.3987 24.828ZM87.6647 25.392V24.156H88.4207L89.1047 24.168L89.4287 22.368H90.5087V24.168L91.2767 24.156H92.5127V25.392H91.2767L90.5087 25.38V28.716L90.5447 28.764H92.3807V30H90.7007C90.1807 30 89.7847 29.864 89.5127 29.592C89.2407 29.312 89.1047 28.916 89.1047 28.404V25.38L88.4207 25.392H87.6647Z" fill="#161616"/>
<path d="M35.759 42.7522L35.759 35.2409L28.2478 35.2409" stroke="#161616" stroke-miterlimit="10" stroke-linecap="round" stroke-linejoin="round"/>
<path d="M25.2408 45.7593L35.6538 35.3463" stroke="#161616" stroke-miterlimit="10" stroke-linecap="round" stroke-linejoin="round"/>
</svg>
