<svg width="46" height="46" viewBox="0 0 46 46" fill="none" xmlns="http://www.w3.org/2000/svg">
<rect x="0.5" y="0.5" width="45" height="45" rx="22.5" stroke="#BFC2CC"/>
<path d="M27.1665 15.9167H18.8332C16.3332 15.9167 14.6665 17.1667 14.6665 20.0833V25.9167C14.6665 28.8333 16.3332 30.0833 18.8332 30.0833H27.1665C29.6665 30.0833 31.3332 28.8333 31.3332 25.9167V20.0833C31.3332 17.1667 29.6665 15.9167 27.1665 15.9167ZM27.5582 20.9917L24.9498 23.075C24.3998 23.5167 23.6998 23.7333 22.9998 23.7333C22.2998 23.7333 21.5915 23.5167 21.0498 23.075L18.4415 20.9917C18.1748 20.775 18.1332 20.375 18.3415 20.1083C18.5582 19.8417 18.9498 19.7917 19.2165 20.0083L21.8248 22.0917C22.4582 22.6 23.5332 22.6 24.1665 22.0917L26.7748 20.0083C27.0415 19.7917 27.4415 19.8333 27.6498 20.1083C27.8665 20.375 27.8248 20.775 27.5582 20.9917Z" fill="#161616"/>
</svg>
