<svg width="135" height="348" viewBox="0 0 135 348" fill="none" xmlns="http://www.w3.org/2000/svg">
<mask id="path-1-inside-1_88_198" fill="white">
<path d="M134.055 347.164C133.951 347.552 133.552 347.782 133.164 347.677C95.1788 337.334 61.6244 314.82 37.6505 283.577C13.5288 252.141 0.454092 213.624 0.454094 174C0.454095 134.376 13.5288 95.8589 37.6505 64.4229C61.6244 33.1795 95.1787 10.666 133.164 0.323163C133.552 0.21762 133.951 0.447918 134.055 0.835962C134.159 1.22401 133.928 1.62285 133.54 1.72841C95.8646 11.9883 62.5836 34.3192 38.8047 65.3086C14.878 96.4905 1.9089 134.696 1.9089 174C1.9089 213.304 14.8779 251.51 38.8047 282.691C62.5836 313.681 95.8646 336.012 133.54 346.272C133.928 346.377 134.159 346.776 134.055 347.164Z"/>
</mask>
<path d="M134.055 347.164C133.951 347.552 133.552 347.782 133.164 347.677C95.1788 337.334 61.6244 314.82 37.6505 283.577C13.5288 252.141 0.454092 213.624 0.454094 174C0.454095 134.376 13.5288 95.8589 37.6505 64.4229C61.6244 33.1795 95.1787 10.666 133.164 0.323163C133.552 0.21762 133.951 0.447918 134.055 0.835962C134.159 1.22401 133.928 1.62285 133.54 1.72841C95.8646 11.9883 62.5836 34.3192 38.8047 65.3086C14.878 96.4905 1.9089 134.696 1.9089 174C1.9089 213.304 14.8779 251.51 38.8047 282.691C62.5836 313.681 95.8646 336.012 133.54 346.272C133.928 346.377 134.159 346.776 134.055 347.164Z" stroke="#BFC2CC" stroke-width="2" mask="url(#path-1-inside-1_88_198)"/>
</svg>
