<svg width="134" height="348" viewBox="0 0 134 348" fill="none" xmlns="http://www.w3.org/2000/svg">
<mask id="path-1-inside-1_100_233" fill="white">
<path d="M0.399185 347.164C0.503159 347.552 0.902542 347.782 1.29018 347.677C39.2753 337.334 72.8297 314.82 96.8036 283.577C120.925 252.141 134 213.624 134 174C134 134.376 120.925 95.8589 96.8036 64.4229C72.8297 33.1795 39.2754 10.666 1.29018 0.323163C0.902542 0.21762 0.503159 0.447918 0.399185 0.835962C0.295197 1.22401 0.526017 1.62285 0.913636 1.72841C38.5895 11.9883 71.8705 34.3192 95.6494 65.3086C119.576 96.4905 132.545 134.696 132.545 174C132.545 213.304 119.576 251.51 95.6494 282.691C71.8705 313.681 38.5895 336.012 0.913635 346.272C0.526016 346.377 0.295197 346.776 0.399185 347.164Z"/>
</mask>
<path d="M0.399185 347.164C0.503159 347.552 0.902542 347.782 1.29018 347.677C39.2753 337.334 72.8297 314.82 96.8036 283.577C120.925 252.141 134 213.624 134 174C134 134.376 120.925 95.8589 96.8036 64.4229C72.8297 33.1795 39.2754 10.666 1.29018 0.323163C0.902542 0.21762 0.503159 0.447918 0.399185 0.835962C0.295197 1.22401 0.526017 1.62285 0.913636 1.72841C38.5895 11.9883 71.8705 34.3192 95.6494 65.3086C119.576 96.4905 132.545 134.696 132.545 174C132.545 213.304 119.576 251.51 95.6494 282.691C71.8705 313.681 38.5895 336.012 0.913635 346.272C0.526016 346.377 0.295197 346.776 0.399185 347.164Z" stroke="#BFC2CC" stroke-width="2" mask="url(#path-1-inside-1_100_233)"/>
</svg>
