<svg width="418" height="639" viewBox="0 0 418 639" fill="none" xmlns="http://www.w3.org/2000/svg">
<path d="M0.000568055 106.205L0.372595 106.199L0.0421988 1.29153L11.7215 1.24625C11.7131 1.37629 11.6866 1.47502 11.6783 1.60505C11.7201 12.0135 20.158 20.4123 30.5665 20.3704C40.9749 20.3285 49.3737 11.8907 49.3318 1.48221C49.3402 1.35217 49.2926 1.23361 49.2944 1.12826L62.2445 1.07956C62.2361 1.20959 62.2096 1.30832 62.2013 1.43836C62.2431 11.8468 70.681 20.2456 81.0894 20.2037C91.4979 20.1619 99.8967 11.724 99.8548 1.31552C99.8632 1.18549 99.8156 1.06692 99.8174 0.961566L112.767 0.912868C112.759 1.04291 112.733 1.14163 112.724 1.27167C112.766 11.6802 121.204 20.0789 131.612 20.037C142.021 19.9952 150.42 11.5573 150.378 1.14884C150.386 1.0188 150.339 0.900229 150.34 0.794878L163.29 0.746182C163.282 0.87622 163.256 0.974944 163.247 1.10498C163.289 11.5135 171.727 19.9122 182.135 19.8703C192.544 19.8285 200.943 11.3906 200.901 0.982148C200.909 0.852114 200.862 0.733537 200.863 0.628186L213.813 0.579494C213.805 0.709528 213.779 0.808256 213.77 0.938291C213.812 11.3468 222.25 19.7455 232.658 19.7037C243.067 19.6618 251.466 11.2239 251.424 0.815456C251.432 0.685422 251.385 0.566849 251.386 0.461498L264.336 0.412798C264.328 0.542832 264.302 0.641568 264.293 0.771602C264.335 11.1801 272.773 19.5788 283.181 19.537C293.59 19.4951 301.989 11.0572 301.947 0.648768C301.955 0.518737 301.908 0.400151 301.909 0.294804L314.859 0.24611C314.851 0.37614 314.825 0.474886 314.816 0.604916C314.858 11.0134 323.296 19.4121 333.704 19.3703C344.113 19.3284 352.512 10.8906 352.47 0.482082C352.478 0.352051 352.431 0.233466 352.432 0.12812L365.443 0.148633C365.435 0.278664 365.408 0.377406 365.4 0.507437C365.442 10.9159 373.88 19.3147 384.288 19.2728C394.697 19.2309 403.095 10.7931 403.054 0.384603C403.062 0.254573 403.014 0.135988 403.016 0.0306413L415.935 1.11339e-05L417.223 531.823L417.553 636.73L405.874 636.776C405.882 636.646 405.909 636.547 405.917 636.417C405.875 626.008 397.437 617.61 387.029 617.651C376.62 617.693 368.222 626.131 368.263 636.54C368.255 636.67 368.303 636.788 368.301 636.894L355.351 636.942C355.359 636.812 355.386 636.714 355.394 636.584C355.352 626.175 346.914 617.776 336.506 617.818C326.097 617.86 317.699 626.298 317.74 636.706C317.732 636.836 317.78 636.955 317.778 637.06L304.828 637.109C304.836 636.979 304.863 636.88 304.871 636.75C304.829 626.342 296.391 617.943 285.983 617.985C275.574 618.027 267.176 626.465 267.217 636.873C267.209 637.003 267.257 637.122 267.255 637.227L254.305 637.276C254.313 637.146 254.34 637.047 254.348 636.917C254.306 626.508 245.868 618.11 235.46 618.152C225.051 618.193 216.653 626.631 216.694 637.04C216.686 637.17 216.734 637.288 216.732 637.394L203.782 637.442C203.79 637.312 203.817 637.214 203.825 637.084C203.783 626.675 195.345 618.276 184.937 618.318C174.528 618.36 166.13 626.798 166.171 637.206C166.163 637.336 166.211 637.455 166.209 637.56L153.259 637.609C153.267 637.479 153.294 637.38 153.302 637.25C153.26 626.842 144.822 618.443 134.414 618.485C124.005 618.527 115.607 626.965 115.649 637.373C115.64 637.503 115.688 637.622 115.686 637.727L102.736 637.776C102.744 637.646 102.771 637.547 102.779 637.417C102.737 627.009 94.2993 618.61 83.8909 618.652C73.4824 618.694 65.0836 627.131 65.1255 637.54C65.1171 637.67 65.1647 637.788 65.1629 637.894L52.2128 637.942C52.2212 637.812 52.2477 637.714 52.2561 637.584C52.2142 627.175 43.7764 618.776 33.3679 618.818C22.9594 618.86 14.5606 627.298 14.6025 637.707C14.5941 637.837 14.6417 637.955 14.6399 638.06L1.74582 638.098L0.000568055 106.205Z" fill="#EFEFEF"/>
</svg>
